<svg width="14" height="17" viewBox="0 0 14 17" fill="none" xmlns="http://www.w3.org/2000/svg">
<g clip-path="url(#clip0_446_6331)">
<path d="M4 0.229187C4.55312 0.229187 5 0.676062 5 1.22919V2.22919H9V1.22919C9 0.676062 9.44687 0.229187 10 0.229187C10.5531 0.229187 11 0.676062 11 1.22919V2.22919H12.5C13.3281 2.22919 14 2.90106 14 3.72919V5.22919H0V3.72919C0 2.90106 0.671875 2.22919 1.5 2.22919H3V1.22919C3 0.676062 3.44688 0.229187 4 0.229187ZM0 6.22919H14V14.7292C14 15.5573 13.3281 16.2292 12.5 16.2292H1.5C0.671875 16.2292 0 15.5573 0 14.7292V6.22919ZM2 8.72919V9.72919C2 10.0042 2.225 10.2292 2.5 10.2292H3.5C3.775 10.2292 4 10.0042 4 9.72919V8.72919C4 8.45419 3.775 8.22919 3.5 8.22919H2.5C2.225 8.22919 2 8.45419 2 8.72919ZM6 8.72919V9.72919C6 10.0042 6.225 10.2292 6.5 10.2292H7.5C7.775 10.2292 8 10.0042 8 9.72919V8.72919C8 8.45419 7.775 8.22919 7.5 8.22919H6.5C6.225 8.22919 6 8.45419 6 8.72919ZM10.5 8.22919C10.225 8.22919 10 8.45419 10 8.72919V9.72919C10 10.0042 10.225 10.2292 10.5 10.2292H11.5C11.775 10.2292 12 10.0042 12 9.72919V8.72919C12 8.45419 11.775 8.22919 11.5 8.22919H10.5ZM2 12.7292V13.7292C2 14.0042 2.225 14.2292 2.5 14.2292H3.5C3.775 14.2292 4 14.0042 4 13.7292V12.7292C4 12.4542 3.775 12.2292 3.5 12.2292H2.5C2.225 12.2292 2 12.4542 2 12.7292ZM6.5 12.2292C6.225 12.2292 6 12.4542 6 12.7292V13.7292C6 14.0042 6.225 14.2292 6.5 14.2292H7.5C7.775 14.2292 8 14.0042 8 13.7292V12.7292C8 12.4542 7.775 12.2292 7.5 12.2292H6.5ZM10 12.7292V13.7292C10 14.0042 10.225 14.2292 10.5 14.2292H11.5C11.775 14.2292 12 14.0042 12 13.7292V12.7292C12 12.4542 11.775 12.2292 11.5 12.2292H10.5C10.225 12.2292 10 12.4542 10 12.7292Z" fill="#3B3B3B"/>
</g>
<defs>
<clipPath id="clip0_446_6331">
<rect width="14" height="16" fill="white" transform="translate(0 0.229187)"/>
</clipPath>
</defs>
</svg>
