<svg width="27" height="27" viewBox="0 0 27 27" fill="none" xmlns="http://www.w3.org/2000/svg">
<rect x="0.259766" y="0.493652" width="26.4" height="26.4" rx="13.2" fill="white"/>
<g clip-path="url(#clip0_353_6823)">
<path d="M21.1973 7.18115H6.00977H5.69727V18.8062H11.5098L13.6348 21.4312L15.5098 18.8062H21.1973V7.18115Z" fill="#228800"/>
<path d="M20.6561 6.51929H6.26419C5.96057 6.51929 5.66939 6.6399 5.45469 6.85459C5.24 7.06929 5.11938 7.36047 5.11938 7.6641V18.1309C5.11938 18.4346 5.24 18.7257 5.45469 18.9404C5.66939 19.1551 5.96057 19.2757 6.26419 19.2757H11.1272C11.1556 19.2761 11.1834 19.2838 11.2079 19.2981C11.2325 19.3124 11.2528 19.3329 11.267 19.3575L12.4789 21.3364C12.5803 21.5059 12.7238 21.6464 12.8956 21.744C13.0673 21.8416 13.2614 21.8932 13.459 21.8936C13.6565 21.894 13.8508 21.8433 14.023 21.7464C14.1952 21.6494 14.3393 21.5096 14.4414 21.3405L15.6533 19.3575C15.6675 19.3329 15.6878 19.3124 15.7123 19.2981C15.7369 19.2838 15.7647 19.2761 15.7931 19.2757H20.6561C20.9597 19.2757 21.2509 19.1551 21.4656 18.9404C21.6803 18.7257 21.8009 18.4346 21.8009 18.1309V7.6641C21.8009 7.36047 21.6803 7.06929 21.4656 6.85459C21.2509 6.6399 20.9597 6.51929 20.6561 6.51929ZM20.8196 18.1309C20.8196 18.1743 20.8024 18.2159 20.7717 18.2466C20.7411 18.2772 20.6995 18.2945 20.6561 18.2945H15.7931C15.5958 18.2941 15.4018 18.3448 15.2299 18.4415C15.058 18.5382 14.914 18.6777 14.8118 18.8464L13.6008 20.8294C13.5864 20.8542 13.5658 20.8748 13.5409 20.8891C13.5161 20.9034 13.488 20.9109 13.4593 20.9109C13.4307 20.9109 13.4025 20.9034 13.3777 20.8891C13.3529 20.8748 13.3322 20.8542 13.3179 20.8294L12.1076 18.8489C12.0051 18.6803 11.8611 18.5409 11.6893 18.444C11.5175 18.347 11.3236 18.2958 11.1264 18.2953H6.26419C6.22082 18.2953 6.17922 18.2781 6.14855 18.2474C6.11788 18.2167 6.10065 18.1751 6.10065 18.1317V7.6641C6.10065 7.62072 6.11788 7.57912 6.14855 7.54845C6.17922 7.51778 6.22082 7.50055 6.26419 7.50055H20.6561C20.6995 7.50055 20.7411 7.51778 20.7717 7.54845C20.8024 7.57912 20.8196 7.62072 20.8196 7.6641V18.1309ZM14.2779 12.8975C14.2779 13.0592 14.2299 13.2173 14.1401 13.3518C14.0502 13.4863 13.9225 13.5911 13.7731 13.653C13.6236 13.7149 13.4592 13.7311 13.3006 13.6995C13.142 13.668 12.9963 13.5901 12.8819 13.4757C12.7676 13.3614 12.6897 13.2157 12.6581 13.057C12.6266 12.8984 12.6428 12.734 12.7047 12.5846C12.7666 12.4352 12.8714 12.3075 13.0058 12.2176C13.1403 12.1277 13.2984 12.0798 13.4601 12.0798C13.677 12.0798 13.885 12.1659 14.0384 12.3193C14.1917 12.4726 14.2779 12.6806 14.2779 12.8975ZM10.6799 12.8975C10.6799 13.0592 10.6319 13.2173 10.5421 13.3518C10.4522 13.4863 10.3245 13.5911 10.1751 13.653C10.0257 13.7149 9.86126 13.7311 9.70264 13.6995C9.54402 13.668 9.39831 13.5901 9.28395 13.4757C9.16959 13.3614 9.09171 13.2157 9.06016 13.057C9.02861 12.8984 9.0448 12.734 9.10669 12.5846C9.16858 12.4352 9.27339 12.3075 9.40787 12.2176C9.54234 12.1277 9.70044 12.0798 9.86217 12.0798C10.079 12.0798 10.287 12.1659 10.4404 12.3193C10.5937 12.4726 10.6799 12.6806 10.6799 12.8975ZM17.8758 12.8975C17.8758 13.0592 17.8279 13.2173 17.738 13.3518C17.6482 13.4863 17.5205 13.5911 17.371 13.653C17.2216 13.7149 17.0572 13.7311 16.8986 13.6995C16.74 13.668 16.5943 13.5901 16.4799 13.4757C16.3655 13.3614 16.2877 13.2157 16.2561 13.057C16.2246 12.8984 16.2407 12.734 16.3026 12.5846C16.3645 12.4352 16.4693 12.3075 16.6038 12.2176C16.7383 12.1277 16.8964 12.0798 17.0581 12.0798C17.275 12.0798 17.483 12.1659 17.6363 12.3193C17.7897 12.4726 17.8758 12.6806 17.8758 12.8975Z" fill="black"/>
</g>
<defs>
<clipPath id="clip0_353_6823">
<rect width="16.4" height="16.4" fill="white" transform="translate(5.25977 5.49365)"/>
</clipPath>
</defs>
</svg>
