<svg width="44" height="45" viewBox="0 0 44 45" fill="none" xmlns="http://www.w3.org/2000/svg">
<path d="M22 0.75C17.6488 0.75 13.3953 2.04028 9.77746 4.45767C6.15958 6.87506 3.33979 10.311 1.67466 14.331C0.00953218 18.3509 -0.426141 22.7744 0.422734 27.042C1.27161 31.3096 3.3669 35.2296 6.44366 38.3064C9.52042 41.3831 13.4404 43.4784 17.708 44.3273C21.9756 45.1762 26.3991 44.7405 30.419 43.0754C34.439 41.4102 37.875 38.5904 40.2923 34.9725C42.7097 31.3547 44 27.1012 44 22.75C44 16.9152 41.6822 11.3195 37.5564 7.19365C33.4306 3.06785 27.8348 0.75 22 0.75ZM32.8075 15.82L29.205 32.8425C28.93 34.0525 28.215 34.3275 27.1975 33.7775L21.6975 29.7075L18.9475 32.265C18.818 32.4342 18.6516 32.5717 18.461 32.667C18.2704 32.7623 18.0606 32.8129 17.8475 32.815L18.2325 27.315L28.4075 18.1025C28.875 17.7175 28.4075 17.4975 27.7475 17.8825L15.2625 25.72L9.76251 24.015C8.58001 23.6575 8.55251 22.8325 10.01 22.2825L31.2125 14.0325C32.2575 13.73 33.1375 14.335 32.8075 15.82Z" fill="#228800"/>
</svg>
