<svg width="28" height="28" viewBox="0 0 28 28" fill="none" xmlns="http://www.w3.org/2000/svg">
<rect x="0.859375" y="0.493652" width="26.4004" height="26.5314" rx="13.2002" fill="white"/>
<path d="M10.2724 12.2181V21.4642V12.2181ZM16.4365 9.04364L15.666 12.2181H20.158C20.3973 12.2181 20.6332 12.2738 20.8472 12.3808C21.0612 12.4878 21.2473 12.6431 21.3908 12.8345C21.5344 13.0259 21.6314 13.2481 21.6742 13.4835C21.717 13.7188 21.7044 13.9609 21.6374 14.1906L19.8421 20.3547C19.7488 20.6747 19.5541 20.9559 19.2874 21.156C19.0206 21.356 18.6962 21.4642 18.3628 21.4642H7.96093C7.55223 21.4642 7.16027 21.3018 6.87127 21.0128C6.58228 20.7238 6.41992 20.3319 6.41992 19.9232V13.7591C6.41992 13.3504 6.58228 12.9585 6.87127 12.6695C7.16027 12.3805 7.55223 12.2181 7.96093 12.2181H10.0875C10.3742 12.218 10.6552 12.1378 10.8988 11.9868C11.1425 11.8357 11.3392 11.6196 11.4667 11.3629L14.125 6.05408C14.4883 6.05858 14.846 6.14513 15.1712 6.30726C15.4964 6.4694 15.7807 6.70292 16.003 6.9904C16.2253 7.27787 16.3797 7.61185 16.4548 7.9674C16.5298 8.32294 16.5236 8.69085 16.4365 9.04364Z" fill="#228800"/>
<path d="M10.2724 12.2181V21.4642M16.4365 9.04364L15.666 12.2181H20.158C20.3973 12.2181 20.6332 12.2738 20.8472 12.3808C21.0612 12.4878 21.2473 12.6431 21.3908 12.8345C21.5344 13.0259 21.6314 13.2481 21.6742 13.4835C21.717 13.7188 21.7044 13.9609 21.6374 14.1906L19.8421 20.3547C19.7488 20.6747 19.5541 20.9559 19.2874 21.156C19.0206 21.356 18.6962 21.4642 18.3628 21.4642H7.96093C7.55223 21.4642 7.16027 21.3018 6.87127 21.0128C6.58228 20.7238 6.41992 20.3319 6.41992 19.9232V13.7591C6.41992 13.3504 6.58228 12.9585 6.87127 12.6695C7.16027 12.3805 7.55223 12.2181 7.96093 12.2181H10.0875C10.3742 12.218 10.6552 12.1378 10.8988 11.9868C11.1425 11.8357 11.3392 11.6196 11.4667 11.3629L14.125 6.05408C14.4883 6.05858 14.846 6.14513 15.1712 6.30726C15.4964 6.4694 15.7807 6.70292 16.003 6.9904C16.2253 7.27787 16.3797 7.61185 16.4548 7.9674C16.5298 8.32294 16.5236 8.69085 16.4365 9.04364Z" stroke="black" stroke-width="1.54101" stroke-linecap="round" stroke-linejoin="round"/>
</svg>
